<svg width="28" height="29" viewBox="0 0 28 29" fill="none" xmlns="http://www.w3.org/2000/svg">
<path d="M5.69318 23.3068C4.86364 23.3068 4.1108 23.1506 3.43466 22.8381C2.75852 22.5199 2.22159 22.0625 1.82386 21.4659C1.42614 20.8636 1.22727 20.1364 1.22727 19.2841C1.22727 18.5341 1.375 17.9261 1.67045 17.4602C1.96591 16.9886 2.3608 16.6193 2.85511 16.3523C3.34943 16.0852 3.89489 15.8864 4.49148 15.7557C5.09375 15.6193 5.69886 15.5114 6.30682 15.4318C7.10227 15.3295 7.74716 15.2528 8.24148 15.2017C8.74148 15.1449 9.10511 15.0511 9.33239 14.9205C9.56534 14.7898 9.68182 14.5625 9.68182 14.2386V14.1705C9.68182 13.3295 9.4517 12.6761 8.99148 12.2102C8.53693 11.7443 7.84659 11.5114 6.92045 11.5114C5.96023 11.5114 5.20739 11.7216 4.66193 12.142C4.11648 12.5625 3.73295 13.0114 3.51136 13.4886L1.60227 12.8068C1.94318 12.0114 2.39773 11.392 2.96591 10.9489C3.53977 10.5 4.16477 10.1875 4.84091 10.0114C5.52273 9.82955 6.19318 9.73864 6.85227 9.73864C7.27273 9.73864 7.75568 9.78977 8.30114 9.89204C8.85227 9.98864 9.38352 10.1903 9.89489 10.4972C10.4119 10.804 10.8409 11.267 11.1818 11.8864C11.5227 12.5057 11.6932 13.3352 11.6932 14.375V23H9.68182V21.2273H9.57955C9.44318 21.5114 9.21591 21.8153 8.89773 22.1392C8.57955 22.4631 8.15625 22.7386 7.62784 22.9659C7.09943 23.1932 6.45455 23.3068 5.69318 23.3068ZM6 21.5C6.79545 21.5 7.46591 21.3438 8.01136 21.0312C8.5625 20.7188 8.97727 20.3153 9.25568 19.821C9.53977 19.3267 9.68182 18.8068 9.68182 18.2614V16.4205C9.59659 16.5227 9.40909 16.6165 9.11932 16.7017C8.83523 16.7812 8.50568 16.8523 8.13068 16.9148C7.76136 16.9716 7.40057 17.0227 7.0483 17.0682C6.7017 17.108 6.42045 17.142 6.20455 17.1705C5.68182 17.2386 5.19318 17.3494 4.73864 17.5028C4.28977 17.6506 3.92614 17.875 3.64773 18.1761C3.375 18.4716 3.23864 18.875 3.23864 19.3864C3.23864 20.0852 3.49716 20.6136 4.0142 20.9716C4.53693 21.3239 5.19886 21.5 6 21.5Z" fill="black"/>
<path d="M19.6932 23.3068C18.8636 23.3068 18.1108 23.1506 17.4347 22.8381C16.7585 22.5199 16.2216 22.0625 15.8239 21.4659C15.4261 20.8636 15.2273 20.1364 15.2273 19.2841C15.2273 18.5341 15.375 17.9261 15.6705 17.4602C15.9659 16.9886 16.3608 16.6193 16.8551 16.3523C17.3494 16.0852 17.8949 15.8864 18.4915 15.7557C19.0938 15.6193 19.6989 15.5114 20.3068 15.4318C21.1023 15.3295 21.7472 15.2528 22.2415 15.2017C22.7415 15.1449 23.1051 15.0511 23.3324 14.9205C23.5653 14.7898 23.6818 14.5625 23.6818 14.2386V14.1705C23.6818 13.3295 23.4517 12.6761 22.9915 12.2102C22.5369 11.7443 21.8466 11.5114 20.9205 11.5114C19.9602 11.5114 19.2074 11.7216 18.6619 12.142C18.1165 12.5625 17.733 13.0114 17.5114 13.4886L15.6023 12.8068C15.9432 12.0114 16.3977 11.392 16.9659 10.9489C17.5398 10.5 18.1648 10.1875 18.8409 10.0114C19.5227 9.82955 20.1932 9.73864 20.8523 9.73864C21.2727 9.73864 21.7557 9.78977 22.3011 9.89204C22.8523 9.98864 23.3835 10.1903 23.8949 10.4972C24.4119 10.804 24.8409 11.267 25.1818 11.8864C25.5227 12.5057 25.6932 13.3352 25.6932 14.375V23H23.6818V21.2273H23.5795C23.4432 21.5114 23.2159 21.8153 22.8977 22.1392C22.5795 22.4631 22.1563 22.7386 21.6278 22.9659C21.0994 23.1932 20.4545 23.3068 19.6932 23.3068ZM20 21.5C20.7955 21.5 21.4659 21.3438 22.0114 21.0312C22.5625 20.7188 22.9773 20.3153 23.2557 19.821C23.5398 19.3267 23.6818 18.8068 23.6818 18.2614V16.4205C23.5966 16.5227 23.4091 16.6165 23.1193 16.7017C22.8352 16.7812 22.5057 16.8523 22.1307 16.9148C21.7614 16.9716 21.4006 17.0227 21.0483 17.0682C20.7017 17.108 20.4205 17.142 20.2045 17.1705C19.6818 17.2386 19.1932 17.3494 18.7386 17.5028C18.2898 17.6506 17.9261 17.875 17.6477 18.1761C17.375 18.4716 17.2386 18.875 17.2386 19.3864C17.2386 20.0852 17.4972 20.6136 18.0142 20.9716C18.5369 21.3239 19.1989 21.5 20 21.5Z" fill="black"/>
</svg>
