<svg width="53" height="86" viewBox="0 0 53 86" fill="none" xmlns="http://www.w3.org/2000/svg">
<circle cx="26.3546" cy="16.6452" r="15.6452" stroke="#F1642E" stroke-width="2"/>
<mask id="path-2-inside-1_27_40" fill="white">
<path d="M52.7097 59.6454C52.7097 52.6556 49.933 45.9522 44.9905 41.0097C40.048 36.0672 33.3446 33.2905 26.3548 33.2905C19.3651 33.2905 12.6616 36.0672 7.71916 41.0097C2.77666 45.9522 1.05542e-06 52.6556 0 59.6454L26.3548 59.6454H52.7097Z"/>
</mask>
<path d="M52.7097 59.6454C52.7097 52.6556 49.933 45.9522 44.9905 41.0097C40.048 36.0672 33.3446 33.2905 26.3548 33.2905C19.3651 33.2905 12.6616 36.0672 7.71916 41.0097C2.77666 45.9522 1.05542e-06 52.6556 0 59.6454L26.3548 59.6454H52.7097Z" stroke="#F1642F" stroke-width="4" mask="url(#path-2-inside-1_27_40)"/>
</svg>
